HIERARCHY
ROOT Hips
{
	OFFSET 0.000000 0.000000 0.000000 
	CHANNELS 6 Xposition Yposition Zposition Yrotation Zrotation Xrotation 
	JOINT Lumbar
	{
		OFFSET 0.000000 0.000000 0.000000 
		CHANNELS 3 Zrotation Xrotation Yrotation
		JOINT Neck
		{
			OFFSET 0.000000 0.445665 0.000000 
			CHANNELS 3 Zrotation Xrotation Yrotation
			End Site
			{
				OFFSET 0.000000 0.227535 0.000000 
			}
		}
		JOINT RightShoulder
		{
			OFFSET 0.019635 0.377685 0.194865 
			CHANNELS 3 Zrotation Xrotation Yrotation
			JOINT RightElbow
			{
				OFFSET 0.000000 -0.243375 0.000000 
				CHANNELS 2 Zrotation Yrotation
				JOINT RightWrist
				{
					OFFSET 0.000000 -0.264825 0.000000 
					CHANNELS 2 Zrotation Xrotation
					End Site
					{
						OFFSET 0.006600 -0.176220 0.000990 
					}
				}
			}
		}
		JOINT LeftShoulder
		{
			OFFSET 0.019635 0.377685 -0.194865 
			CHANNELS 3 Zrotation Xrotation Yrotation
			JOINT LeftElbow
			{
				OFFSET 0.000000 -0.243375 0.000000 
				CHANNELS 2 Zrotation Yrotation
				JOINT LeftWrist
				{
					OFFSET 0.000000 -0.264825 0.000000 
					CHANNELS 2 Zrotation Xrotation
					End Site
					{
						OFFSET 0.006600 -0.176220 -0.000990 
					}
				}
			}
		}
	}
	JOINT RightHip
	{
		OFFSET 0.052140 -0.069960 0.075570 
		CHANNELS 3 Zrotation Xrotation Yrotation
		JOINT RightKnee
		{
			OFFSET 0.000000 -0.402270 0.000000 
			CHANNELS 1 Zrotation
			JOINT RightAnkle
			{
				OFFSET 0.000000 -0.404085 0.000000 
				CHANNELS 3 Zrotation Xrotation Yrotation
				End Site
				{
					OFFSET 0.204105 -0.089430 0.008415 
				}
			}
		}
	}
	JOINT LeftHip
	{
		OFFSET 0.052140 -0.069960 -0.075570 
		CHANNELS 3 Zrotation Xrotation Yrotation
		JOINT LeftKnee
		{
			OFFSET 0.000000 -0.402270 0.000000 
			CHANNELS 1 Zrotation
			JOINT LeftAnkle
			{
				OFFSET 0.000000 -0.404085 0.000000 
				CHANNELS 3 Zrotation Xrotation Yrotation
				End Site
				{
					OFFSET 0.204105 -0.089430 -0.008415 
				}
			}
		}
	}
}
MOTION
Frames: 11
Frame Time: 0.02
0.38818 0.73169 -0.08292 180.62203 0 -3.94734 -47.03993 -1.52084 47.73629 51.32093 -29.5135 -36.53828 -15.79797 -2.00522 55.94765 64.0522 76.71474 -8.07062 -1.57662 -11.37929 -11.40184 -64.1712 73.18323 -89.25803 4.35536 -10.4585 60.39097 12.79278 -5.95447 -71.81162 -1.95581 -0.08365 8.60764 71.92801 -12.71082 14.14929 -106.45156 -9.46498 1.91654 -2.29038
0.3884 0.73171 -0.08287 180.54186 0 -3.9663 -47.00654 -1.53436 47.71631 51.31631 -29.41251 -36.5506 -15.73918 -2.03278 55.97084 63.97116 76.79644 -8.01846 -1.60027 -11.27746 -11.40184 -64.1712 73.10097 -89.29066 4.25519 -10.46054 60.38259 12.79274 -6.02611 -71.76316 -2.00503 -0.07774 8.67247 71.94012 -12.70954 14.11878 -106.67634 -9.32464 1.95742 -1.97652
0.38853 0.7316 -0.08273 180.48786 0 -3.97068 -46.95856 -1.52601 47.60103 51.30112 -29.28309 -36.5473 -15.68013 -2.04573 55.98011 63.84735 76.90392 -7.95668 -1.63639 -11.17963 -11.40184 -64.1712 72.98998 -89.32403 4.15028 -10.46234 60.39556 12.79145 -6.03917 -71.76942 -2.02916 -0.06677 8.73913 71.93484 -12.7089 14.12625 -106.88687 -9.21518 2.00101 -1.71332
0.38871 0.73156 -0.08263 180.42167 0 -3.98253 -46.91897 -1.52887 47.53934 51.29227 -29.17721 -36.55386 -15.62619 -2.06469 55.99441 63.74543 76.99002 -7.90414 -1.66278 -11.08609 -11.40184 -64.1712 72.89098 -89.35567 4.05115 -10.46431 60.39752 12.79098 -6.08039 -71.74846 -2.06424 -0.05772 8.80718 71.93805 -12.70793 14.11357 -107.09827 -9.09615 2.04228 -1.43156
0.38888 0.7315 -0.08251 180.35375 0 -3.99121 -46.87242 -1.52879 47.43617 51.2773 -29.02603 -36.54817 -15.55026 -2.08685 56.01399 63.63397 77.11484 -7.83104 -1.70528 -10.96638 -11.40184 -64.1712 72.79809 -89.39067 3.93706 -10.4662 60.40392 12.78954 -6.11848 -71.73446 -2.10246 -0.05015 8.86728 71.93968 -12.70705 14.11193 -107.3348 -8.95755 2.08877 -1.12374
0.38903 0.73143 -0.08242 180.29741 0 -4.00339 -46.83647 -1.5277 47.39714 51.27262 -28.96317 -36.56586 -15.52108 -2.09942 56.02013 63.53203 77.16728 -7.79837 -1.71827 -10.90246 -11.40184 -64.1712 72.68407 -89.42193 3.85283 -10.46765 60.40673 12.78978 -6.14779 -71.72063 -2.12779 -0.03833 8.94398 71.93996 -12.70618 14.0961 -107.51549 -8.86646 2.12452 -0.88736
0.38919 0.73133 -0.08252 180.25856 0 -4.02277 -46.83633 -1.54173 47.54425 51.29633 -29.14319 -36.63501 -15.61216 -2.07972 55.98268 63.46501 76.99652 -7.88103 -1.63815 -10.98864 -11.40185 -64.17121 72.53048 -89.41551 3.85344 -10.47379 60.392 12.79505 -6.16866 -71.6871 -2.12268 -0.01613 9.06417 71.94307 -12.70506 14.04018 -107.53998 -8.91059 2.13341 -0.80541
0.38932 0.73122 -0.08266 180.23202 0 -4.04726 -46.8466 -1.55309 47.76098 51.33101 -29.41358 -36.73103 -15.75145 -2.05248 55.9339 63.40889 76.75511 -8.00435 -1.52942 -11.13091 -11.40185 -64.17122 72.35437 -89.40963 3.88448 -10.47833 60.37342 12.80203 -6.18228 -71.65324 -2.1055 0.01018 9.20116 71.94501 -12.70394 13.96755 -107.50946 -9.00004 2.13084 -0.79885
0.38944 0.73111 -0.08277 180.20579 0 -4.07312 -46.85041 -1.55715 47.95528 51.36245 -29.64897 -36.82596 -15.87522 -2.03452 55.89675 63.34937 76.55751 -8.10837 -1.43959 -11.25008 -11.40185 -64.17123 72.18072 -89.42233 3.90017 -10.48003 60.35843 12.80814 -6.1974 -71.62458 -2.09422 0.03469 9.33146 71.94573 -12.70291 13.89716 -107.50755 -9.06081 2.13099 -0.7798
0.38965 0.73099 -0.08295 180.15658 0 -4.08254 -46.86182 -1.59599 48.10919 51.38672 -29.86163 -36.87431 -15.97421 -1.99107 55.83195 63.28343 76.31211 -8.2161 -1.32574 -11.36128 -11.40185 -64.17125 72.03874 -89.35876 3.92018 -10.49735 60.33675 12.81457 -6.21684 -71.57732 -2.08013 0.05908 9.45778 71.95281 -12.70156 13.84998 -107.49022 -9.15481 2.14117 -0.67502
0.38966 0.7309 -0.08297 180.15646 0 -4.12806 -46.85905 -1.56256 48.3628 51.42798 -30.13861 -37.02513 -16.13347 -1.99946 55.82199 63.23197 76.14825 -8.32517 -1.25438 -11.49987 -11.40186 -64.17126 71.82603 -89.45017 3.94088 -10.48103 60.32737 12.82079 -6.22793 -71.56693 -2.06962 0.08463 9.59648 71.94717 -12.70083 13.75085 -107.49178 -9.19239 2.12842 -0.76044
